<svg width="800" height="800" viewBox="0 0 800 800" fill="none" xmlns="http://www.w3.org/2000/svg">
<path d="M385.625 196.375C383.812 193.665 380.999 191.779 377.8 191.138C374.602 190.503 371.276 191.157 368.566 192.969C361.418 197.462 352.336 197.462 345.195 192.969C339.537 189.509 332.152 191.15 328.502 196.692C324.852 202.228 326.249 209.669 331.663 213.502C339.384 218.409 348.344 221.027 357.493 221.052C366.294 221.064 374.894 218.433 382.182 213.502C384.916 211.695 386.821 208.869 387.467 205.653C388.114 202.442 387.45 199.103 385.625 196.375Z" fill="black"/>
<path d="M419.344 278.5C406.935 283.633 392.995 283.633 380.586 278.5C374.434 275.619 367.109 278.268 364.222 284.414C361.341 290.567 363.99 297.891 370.142 300.778C379.884 304.947 390.375 307.089 400.977 307.089C410.95 307.15 420.807 304.996 429.847 300.778C435.987 297.873 438.618 290.543 435.719 284.397C432.819 278.257 425.483 275.626 419.344 278.526L419.344 278.5Z" fill="black"/>
<path d="M471.734 196.375C469.928 193.665 467.114 191.779 463.916 191.138C460.711 190.503 457.391 191.157 454.675 192.969C447.534 197.462 438.452 197.462 431.305 192.969C425.647 189.509 418.267 191.15 414.611 196.692C410.961 202.228 412.365 209.669 417.779 213.502C425.499 218.409 434.454 221.027 443.608 221.052C452.403 221.064 461.004 218.433 468.291 213.502C471.032 211.695 472.936 208.869 473.583 205.653C474.23 202.442 473.565 199.103 471.734 196.375Z" fill="black"/>
<mask id="mask0_107_13" style="mask-type:luminance" maskUnits="userSpaceOnUse" x="153" y="6" width="494" height="788">
<path d="M153.125 6.39062H646.875V793.594H153.125V6.39062Z" fill="white"/>
</mask>
<g mask="url(#mask0_107_13)">
<path d="M547.594 221.656V145.667C548.076 109.272 534.099 74.1702 508.733 48.0656C483.373 21.9609 448.692 6.97651 412.297 6.40308H387.694C351.305 6.97681 316.625 21.9609 291.258 48.0656C265.892 74.1702 251.92 109.272 252.397 145.667V424.776C239.384 424.85 232.151 424.947 231.047 425.045L231.041 425.051C209.575 427.779 189.861 438.302 175.658 454.623C161.449 470.943 153.741 491.921 153.997 513.559V732.106C154.015 748.409 160.503 764.04 172.033 775.568C183.562 787.098 199.194 793.586 215.495 793.604H633.698C636.964 793.604 640.089 792.31 642.396 790.003C644.703 787.696 645.997 784.565 645.997 781.306V513.556C646.266 491.907 638.563 470.917 624.349 454.584C610.133 438.251 590.406 427.723 568.928 424.999C567.836 424.902 560.615 424.804 547.603 424.731L547.594 221.656ZM387.687 30.9999H412.291C442.161 31.5737 470.586 43.9639 491.337 65.4546C512.089 86.9515 523.472 115.791 522.991 145.667V191.534V191.528C518.932 190.692 514.751 190.692 510.692 191.528V166.302C510.692 162.737 509.142 159.344 506.45 157.006C503.752 154.668 500.176 153.619 496.642 154.125C427.923 163.964 385.118 113.731 375.389 100.841V67.9001C375.389 61.1068 369.883 55.6015 363.09 55.6015C356.297 55.6015 350.791 61.1068 350.791 67.9001V102.684C339.256 133.3 296.513 155.083 296.079 155.303C291.916 157.391 289.292 161.645 289.286 166.302V191.528C285.233 190.692 281.046 190.692 276.987 191.528V145.666C276.505 115.789 287.888 86.9502 308.64 65.4534C329.392 43.9627 357.817 31.5734 387.687 30.9999ZM522.991 258.547C522.991 261.947 520.238 264.699 516.838 264.699C513.445 264.699 510.692 261.947 510.692 258.547V221.645V221.651C510.692 218.252 513.445 215.499 516.838 215.499C520.238 215.499 522.991 218.252 522.991 221.651V258.547ZM399.992 363.1C407.945 363.088 415.873 362.209 423.644 360.494C422.771 386.714 432.115 412.251 449.706 431.722C433.403 435.433 416.711 437.172 399.994 436.898C383.27 437.172 366.576 435.439 350.275 431.722C367.866 412.251 377.209 386.714 376.337 360.494C384.107 362.209 392.036 363.088 399.995 363.1H399.992ZM399.992 338.503V338.497C377.166 338.473 355.278 329.397 339.134 313.253C322.997 297.109 313.914 275.228 313.891 252.402V173.569C334.258 162.082 351.884 146.311 365.55 127.334C395.884 161.936 440.092 181.192 486.089 179.831V252.402C486.065 275.228 476.983 297.109 460.845 313.253C444.701 329.397 422.82 338.474 399.994 338.497L399.992 338.503ZM289.292 252.401V258.554L289.286 258.548C289.286 261.947 286.533 264.7 283.14 264.7C279.74 264.7 276.987 261.947 276.987 258.548V221.646V221.652C276.987 218.253 279.74 215.5 283.14 215.5C286.533 215.5 289.286 218.253 289.286 221.652L289.292 252.401ZM276.994 288.675H276.987C282.993 289.908 289.231 289.31 294.883 286.954C304.319 315.36 324.808 338.766 351.725 351.871C352.231 370.127 349.857 406.088 325.083 419.936C318.625 423.257 311.423 424.862 304.172 424.6L276.987 424.661L276.994 288.675ZM535.29 769.003H528.454C532.879 761.557 535.242 753.067 535.29 744.4V769.003ZM510.694 744.406V744.4C510.687 753.183 506 761.3 498.395 765.695V710.813C506 715.201 510.687 723.319 510.694 732.102V744.406ZM621.393 513.562V769H559.895V609.094C559.895 602.3 554.384 596.789 547.59 596.789C540.797 596.789 535.292 602.3 535.292 609.094V732.092C535.292 719.043 530.11 706.531 520.881 697.301C511.659 688.073 499.141 682.891 486.091 682.891H461.494V547.588H473.792V658.294C473.792 665.087 479.298 670.593 486.091 670.593C492.884 670.593 498.396 665.087 498.396 658.294V535.289C498.396 532.03 497.096 528.899 494.789 526.592C492.481 524.285 489.356 522.991 486.091 522.991H289.294C282.501 522.991 276.996 528.496 276.996 535.289V658.294C276.996 665.087 282.501 670.593 289.294 670.593C296.087 670.593 301.599 665.087 301.599 658.294V547.588H436.896V682.891H264.693V609.094C264.693 602.301 259.187 596.789 252.394 596.789C245.601 596.789 240.095 602.301 240.095 609.094V682.891C240.095 689.416 242.683 695.672 247.298 700.286C251.912 704.901 258.168 707.495 264.693 707.495H473.787V768.993H215.49C205.706 768.993 196.318 765.105 189.398 758.184C182.476 751.262 178.588 741.874 178.588 732.091V513.545C178.283 498.072 183.654 483.021 193.688 471.235C203.723 459.449 217.731 451.746 233.056 449.587C236.51 449.428 278.563 449.282 304.259 449.233C310.728 449.245 317.174 448.415 323.435 446.773C342.534 460.262 385.313 461.495 399.991 461.495C414.664 461.495 457.456 460.262 476.56 446.737H476.554C482.804 448.378 489.237 449.208 495.695 449.196C521.403 449.196 563.468 449.392 566.545 449.514C581.95 451.601 596.049 459.285 606.157 471.09C616.271 482.894 621.691 498.007 621.392 513.546L621.393 513.562ZM495.722 424.603C488.495 424.859 481.33 423.254 474.897 419.94C450.123 406.091 447.748 370.123 448.254 351.874C475.172 338.77 495.667 315.363 505.097 286.957C510.755 289.313 516.986 289.911 522.992 288.678V424.664L495.722 424.603Z" fill="black"/>
</g>
<path d="M338.5 633.703H400.005C403.264 633.703 406.395 632.409 408.702 630.102C411.009 627.795 412.303 624.664 412.303 621.405V584.503C412.303 581.244 411.009 578.113 408.702 575.805C406.395 573.498 403.264 572.204 400.005 572.204H338.5C331.707 572.204 326.201 577.71 326.201 584.503V621.405C326.201 624.664 327.501 627.795 329.803 630.102C332.11 632.409 335.241 633.703 338.5 633.703ZM350.799 596.802H387.7V609.1L350.805 609.106L350.799 596.802Z" fill="black"/>
</svg>
