<svg width="800" height="800" viewBox="0 0 800 800" fill="none" xmlns="http://www.w3.org/2000/svg">
<mask id="mask0_107_2" style="mask-type:luminance" maskUnits="userSpaceOnUse" x="6" y="6" width="788" height="788">
<path d="M6.39062 6.39062H793.594V793.594H6.39062V6.39062Z" fill="white"/>
</mask>
<g mask="url(#mask0_107_2)">
<path d="M400 6.39057C295.606 6.39057 195.5 47.8578 121.688 121.673C47.8751 195.489 6.40479 295.595 6.40479 399.986C6.40479 504.375 47.872 604.486 121.688 678.298C195.503 752.114 295.609 793.581 400 793.581C504.389 793.581 604.5 752.114 678.313 678.298C752.128 604.483 793.595 504.377 793.595 399.986C793.479 295.628 751.969 195.58 678.185 121.798C604.392 48.0125 504.356 6.50308 399.997 6.38745L400 6.39057ZM400 32.6296C495.111 32.7517 586.469 69.7203 654.906 135.773C723.345 201.825 763.531 291.822 767.022 386.867H740.783C737.414 298.739 700.03 215.352 636.492 154.18C572.949 93.0218 488.183 58.8609 399.992 58.8609C311.797 58.8609 227.024 93.0218 163.492 154.18C99.9485 215.344 62.5642 298.736 59.1954 386.867H32.9563C36.4537 291.817 76.6329 201.82 145.072 135.773C213.511 69.7218 304.869 32.7515 399.994 32.6296H400ZM464.289 386.864C461.689 374.266 455.457 362.712 446.369 353.619C437.275 344.525 425.714 338.293 413.117 335.698V203.184C413.117 195.939 407.246 190.062 400.001 190.062C392.75 190.062 386.878 195.939 386.878 203.184V335.698C374.281 338.292 362.727 344.524 353.633 353.619C344.539 362.713 338.307 374.267 335.713 386.864H85.4471C89.1459 305.925 123.899 229.52 182.486 173.552C241.074 117.583 318.978 86.35 400.002 86.35C481.025 86.35 558.924 117.581 617.517 173.552C676.105 229.527 710.858 305.925 714.557 386.864H464.289ZM363.069 386.864C366.652 376.574 374.366 368.248 384.352 363.884C394.337 359.52 405.689 359.52 415.675 363.884C425.661 368.248 433.375 376.574 436.958 386.864H363.069ZM203.366 413.103C203.952 463.708 209.664 514.122 220.419 563.58C177.542 573.168 135.83 587.383 96.0173 605.969C57.1985 548.931 35.3423 482.055 32.9735 413.109L203.366 413.103ZM229.605 413.103H386.886V544.634C339.852 545.117 292.953 549.645 246.7 558.172C236.031 510.534 230.306 461.919 229.605 413.103ZM386.886 570.869V766.103C330.588 756.356 280.995 684.683 253.139 583.65C297.28 575.618 342.025 571.333 386.886 570.857V570.869ZM413.125 766.103V570.869C457.992 571.345 502.731 575.629 546.872 583.662C519.022 684.687 469.425 756.365 413.125 766.115V766.103ZM413.125 544.619V413.087H570.406C569.717 461.897 564.004 510.506 553.353 558.144C507.089 549.617 460.17 545.095 413.125 544.619ZM596.656 413.087H767.047C764.697 482.033 742.864 548.903 704.07 605.947C664.258 587.35 622.539 573.122 579.656 563.516C590.386 514.077 596.088 463.675 596.661 413.083L596.656 413.087ZM111.953 627.572C148.745 610.811 187.174 597.909 226.627 589.076C246.5 663.308 277.988 722.45 316.574 757.686C235.622 738.686 163.497 692.823 111.949 627.576L111.953 627.572ZM483.438 757.681C521.969 722.452 553.469 663.309 573.391 589.072C612.844 597.903 651.272 610.806 688.064 627.567C636.52 692.814 564.395 738.675 483.439 757.677L483.438 757.681Z" fill="black"/>
</g>
<path d="M400 111.359C392.749 111.359 386.877 117.231 386.877 124.476V150.715C386.877 157.966 392.749 163.837 400 163.837C407.245 163.837 413.116 157.966 413.116 150.715V124.476C413.116 120.997 411.737 117.658 409.277 115.198C406.812 112.739 403.479 111.359 400 111.359Z" fill="black"/>
<path d="M273.594 154.859C271.867 151.82 269.004 149.598 265.629 148.683C262.253 147.767 258.659 148.231 255.631 149.977C252.604 151.728 250.4 154.609 249.509 157.991C248.612 161.366 249.106 164.961 250.87 167.976L263.993 190.699C265.72 193.739 268.589 195.961 271.958 196.876C275.333 197.792 278.934 197.328 281.956 195.576C284.983 193.83 287.192 190.95 288.084 187.568C288.975 184.193 288.486 180.598 286.716 177.583L273.594 154.859Z" fill="black"/>
<path d="M190.688 264L167.952 250.877V250.884C164.936 249.114 161.341 248.619 157.96 249.516C154.585 250.408 151.698 252.611 149.952 255.638C148.207 258.666 147.737 262.267 148.652 265.636C149.568 269.011 151.796 271.88 154.829 273.607L177.565 286.729L177.571 286.723C183.839 290.288 191.811 288.127 195.418 281.877C199.019 275.633 196.907 267.649 190.688 264Z" fill="black"/>
<path d="M649.969 255.672C646.343 249.398 638.317 247.249 632.042 250.868L609.306 263.991C606.267 265.718 604.045 268.587 603.13 271.956C602.214 275.331 602.684 278.932 604.43 281.954C606.175 284.981 609.062 287.19 612.437 288.082C615.819 288.973 619.414 288.484 622.429 286.714L645.165 273.592C651.439 269.973 653.588 261.947 649.969 255.672Z" fill="black"/>
<path d="M544.312 150.031C541.297 148.292 537.714 147.822 534.352 148.725C530.995 149.628 528.126 151.832 526.392 154.847L513.27 177.57C511.506 180.586 511.012 184.181 511.903 187.556C512.8 190.937 515.003 193.818 518.031 195.564C521.058 197.315 524.653 197.779 528.028 196.864C531.397 195.948 534.266 193.726 535.993 190.687L549.116 167.963C550.862 164.948 551.332 161.365 550.434 158.002C549.531 154.639 547.328 151.771 544.312 150.031Z" fill="black"/>
</svg>
