<svg width="800" height="800" viewBox="0 0 800 800" fill="none" xmlns="http://www.w3.org/2000/svg">
<path fill-rule="evenodd" clip-rule="evenodd" d="M314.344 609.953C300.55 609.953 289.331 598.729 289.331 584.959C289.331 571.178 300.55 559.947 314.344 559.947C328.113 559.947 339.338 571.165 339.338 584.959C339.325 598.735 328.113 609.953 314.344 609.953ZM668.172 574.883H358.313C353.705 554.814 335.753 539.787 314.331 539.787C292.889 539.787 274.92 554.82 270.331 574.883H131.806C126.222 574.883 121.723 579.399 121.723 584.966C121.723 590.532 126.228 595.036 131.806 595.036H270.331C274.921 615.111 292.895 630.132 314.331 630.132C335.761 630.132 353.705 615.111 358.313 595.036H668.156C673.741 595.036 678.239 590.532 678.239 584.966C678.252 579.405 673.747 574.883 668.169 574.883H668.172ZM358.031 274.851L447.644 326.584L358.031 378.317V274.851ZM342.901 404.52C344.457 405.424 346.215 405.875 347.936 405.875C349.694 405.875 351.421 405.424 352.978 404.52L472.82 335.319C475.939 333.524 477.862 330.186 477.862 326.585C477.862 322.977 475.945 319.645 472.82 317.851L352.978 248.661C349.859 246.855 346.008 246.855 342.895 248.661C339.776 250.456 337.853 253.788 337.853 257.396V395.786C337.859 399.387 339.788 402.714 342.901 404.52ZM733.057 652.661C744.013 652.661 752.918 643.756 752.918 632.794V517.255H47.0586V632.8C47.0586 643.756 55.9818 652.667 66.9195 652.667L733.06 652.673L733.057 652.661ZM66.9164 147.333C55.9789 147.333 47.0554 156.244 47.0554 167.212V497.087H752.915V167.212C752.915 156.257 744.01 147.333 733.054 147.333H66.9164ZM733.057 127.167H66.9164C44.8335 127.167 26.8835 145.123 26.8835 167.206V507.128V507.152V507.177V632.788C26.8835 654.871 44.8398 672.821 66.9164 672.821H733.041C755.124 672.821 773.074 654.871 773.074 632.788L773.068 167.194C773.08 145.111 755.118 127.155 733.048 127.155L733.057 127.167Z" fill="black"/>
</svg>
